<svg display='none' xmlns="http://www.w3.org/2000/svg">

    <symbol  viewBox="0 0 50 50" fill="none" id='01' >
    <path d="M14.06 22.67C14.0586 24.2188 14.4399 25.744 15.17 27.11C18.1529 26.9737 20.9686 25.6933 23.0321 23.5349C25.0955 21.3765 26.248 18.506 26.25 15.52C26.2466 14.8494 26.1863 14.1804 26.07 13.52C24.6623 13.1276 23.1828 13.0667 21.7476 13.342C20.3124 13.6174 18.9605 14.2215 17.7979 15.107C16.6354 15.9924 15.6938 17.1352 15.047 18.4457C14.4002 19.7561 14.0658 21.1986 14.07 22.66L14.06 22.67Z" fill="#A445BB"/>
    <path d="M23.55 9.00005H24.22C23.1963 7.50694 21.8373 6.27416 20.2518 5.40034C18.6663 4.52653 16.8983 4.03593 15.0892 3.96781C13.2802 3.89969 11.4803 4.25593 9.83354 5.00804C8.18681 5.76015 6.73898 6.88723 5.60588 8.29913C4.47278 9.71102 3.68586 11.3685 3.3081 13.139C2.93033 14.9095 2.9722 16.7439 3.43035 18.4953C3.88851 20.2467 4.75023 21.8666 5.94657 23.2253C7.14291 24.584 8.64066 25.6439 10.32 26.32C9.99846 25.1401 9.83371 23.923 9.82999 22.7C9.84056 19.0664 11.2901 15.5848 13.8614 13.0173C16.4327 10.4498 19.9163 9.00532 23.55 9.00005V9.00005Z" fill="#D15187"/>
    <path d="M24.22 9H23.55C19.9215 9.00523 16.4423 10.4456 13.8719 13.0066C11.3015 15.5677 9.84847 19.0415 9.82999 22.67C9.83371 23.8929 9.99846 25.1101 10.32 26.29V26.29C10.9043 28.4324 12.001 30.4005 13.5155 32.0245C15.0299 33.6486 16.9168 34.8798 19.0132 35.6121C21.1096 36.3444 23.3527 36.5557 25.549 36.2278C27.7453 35.8999 29.8289 35.0427 31.62 33.73L43.62 45.73C43.8524 45.9614 44.167 46.0914 44.495 46.0914C44.823 46.0914 45.1376 45.9614 45.37 45.73L46.61 44.49C46.8414 44.2576 46.9714 43.943 46.9714 43.615C46.9714 43.287 46.8414 42.9724 46.61 42.74L34.61 30.74C36.0653 28.7445 36.9536 26.3924 37.1808 23.9331C37.408 21.4737 36.9657 18.9987 35.9007 16.7703C34.8357 14.5419 33.1877 12.6432 31.1313 11.2752C29.075 9.90725 26.6868 9.12108 24.22 9V9ZM23.55 32.19C21.8313 32.1935 20.144 31.7302 18.6681 30.8496C17.1922 29.969 15.9831 28.7041 15.17 27.19V27.19C14.4398 25.8241 14.0585 24.2988 14.06 22.75C14.0558 21.2886 14.3902 19.8461 15.0369 18.5357C15.6837 17.2252 16.6254 16.0825 17.7879 15.197C18.9505 14.3115 20.3024 13.7074 21.7376 13.432C23.1728 13.1567 24.6523 13.2176 26.06 13.61C28.2811 14.2118 30.2074 15.6009 31.4798 17.5183C32.7522 19.4357 33.2837 21.7504 32.9753 24.0308C32.6668 26.3112 31.5394 28.4016 29.8034 29.912C28.0673 31.4225 25.8411 32.2499 23.54 32.24L23.55 32.19Z" fill="#6F00FF"/>
    </symbol>

    <symbol  viewBox="0 0 50 50" fill="none" id='02'>
        <g style="mix-blend-mode:multiply">
        <path d="M32.85 24.63C31.977 25.9067 30.8057 26.9511 29.4378 27.6729C28.0699 28.3946 26.5466 28.7718 25 28.7718C23.4534 28.7718 21.9301 28.3946 20.5622 27.6729C19.1943 26.9511 18.0231 25.9067 17.15 24.63C15.3655 25.8835 13.9094 27.5486 12.905 29.4843C11.9006 31.42 11.3775 33.5692 11.38 35.75V46.88H38.62V35.75C38.6225 33.5692 38.0994 31.42 37.095 29.4843C36.0906 27.5486 34.6345 25.8835 32.85 24.63Z" fill="#6F00FF"/>
        </g>
        <g style="mix-blend-mode:multiply">
        <path d="M32.85 24.63C33.827 23.2013 34.3956 21.5331 34.4945 19.8051C34.5933 18.0771 34.2187 16.3548 33.411 14.824C32.6034 13.2932 31.3932 12.0118 29.911 11.118C28.4288 10.2242 26.7308 9.75183 25 9.75183C23.2692 9.75183 21.5711 10.2242 20.089 11.118C18.6068 12.0118 17.3966 13.2932 16.5889 14.824C15.7813 16.3548 15.4067 18.0771 15.5055 19.8051C15.6044 21.5331 16.173 23.2013 17.15 24.63C19.4442 23.003 22.1874 22.129 25 22.129C27.8126 22.129 30.5557 23.003 32.85 24.63Z" fill="#D15187"/>
        </g>
        <path d="M25 28.77C26.5465 28.7702 28.0697 28.3933 29.4376 27.6719C30.8055 26.9505 31.9768 25.9064 32.85 24.63C30.5558 23.003 27.8126 22.129 25 22.129C22.1874 22.129 19.4443 23.003 17.15 24.63C18.0233 25.9064 19.1946 26.9505 20.5625 27.6719C21.9304 28.3933 23.4536 28.7702 25 28.77Z" fill="#A445BB"/>
        <path d="M7.75 18.79L11.84 19.25L7.75 19.72V18.79Z" fill="#6F2CFF"/>
        <path d="M25.46 2.01001L25 6.09001L24.54 2.01001H25.46Z" fill="#6F2CFF"/>
        <path d="M42.25 19.72L38.16 19.25L42.25 18.79V19.72Z" fill="#6F2CFF"/>
    </symbol>

    <symbol  viewBox="0 0 50 50" fill="none" id='03'>
    <path d="M33 26.07L36.9 30C36.9994 30.1004 37.1178 30.1801 37.2483 30.2345C37.3787 30.2889 37.5186 30.3169 37.66 30.3169C37.8013 30.3169 37.9412 30.2889 38.0716 30.2345C38.2021 30.1801 38.3205 30.1004 38.42 30L41.18 27.24V13C41.1813 12.7874 41.1193 12.5792 41.0018 12.402C40.8843 12.2248 40.7167 12.0866 40.5204 12.005C40.324 11.9235 40.1078 11.9023 39.8993 11.9442C39.6909 11.986 39.4996 12.089 39.35 12.24L28.47 23.15C28.3705 23.2504 28.2521 23.3301 28.1216 23.3845C27.9912 23.4389 27.8513 23.4669 27.71 23.4669C27.5686 23.4669 27.4287 23.4389 27.2983 23.3845C27.1678 23.3301 27.0494 23.2504 26.95 23.15L20.62 16.82C20.5205 16.7197 20.4021 16.64 20.2716 16.5856C20.1412 16.5312 20.0013 16.5032 19.86 16.5032C19.7186 16.5032 19.5787 16.5312 19.4483 16.5856C19.3178 16.64 19.1994 16.7197 19.1 16.82L3.35995 32.69C3.21236 32.8402 3.11236 33.0306 3.07247 33.2374C3.03259 33.4441 3.05459 33.6581 3.13573 33.8524C3.21687 34.0467 3.35353 34.2127 3.52861 34.3297C3.70369 34.4467 3.90939 34.5094 4.11995 34.51H23.12L31.49 26.07C31.6905 25.8704 31.962 25.7583 32.245 25.7583C32.528 25.7583 32.7994 25.8704 33 26.07Z" fill="#6F00FF"/>
    <path d="M45.12 23.26L41.18 27.21V33.43C41.18 33.7138 41.0672 33.9859 40.8666 34.1866C40.6659 34.3873 40.3938 34.5 40.11 34.5H23.11L21.42 36.21C21.269 36.3597 21.1659 36.5509 21.1241 36.7594C21.0822 36.9678 21.1034 37.184 21.185 37.3804C21.2665 37.5768 21.4047 37.7444 21.5819 37.8619C21.7592 37.9793 21.9674 38.0413 22.18 38.04H45.88C46.0222 38.0467 46.1642 38.025 46.2979 37.9761C46.4316 37.9272 46.5541 37.8521 46.6584 37.7553C46.7627 37.6584 46.8467 37.5417 46.9053 37.412C46.964 37.2824 46.9961 37.1423 47 37V24C47.0087 23.7782 46.9481 23.5591 46.8268 23.3733C46.7054 23.1874 46.5293 23.0438 46.3227 22.9625C46.1161 22.8812 45.8894 22.8662 45.6739 22.9195C45.4584 22.9728 45.2648 23.0918 45.12 23.26Z" fill="#D15187"/>
    <path d="M41.18 33.43V27.21L38.42 30C38.3205 30.1004 38.2021 30.18 38.0717 30.2344C37.9412 30.2888 37.8013 30.3168 37.66 30.3168C37.5187 30.3168 37.3787 30.2888 37.2483 30.2344C37.1178 30.18 36.9995 30.1004 36.9 30L33 26.07C32.9005 25.9696 32.7821 25.8899 32.6517 25.8355C32.5212 25.7812 32.3813 25.7532 32.24 25.7532C32.0987 25.7532 31.9587 25.7812 31.8283 25.8355C31.6978 25.8899 31.5795 25.9696 31.48 26.07L23.11 34.51H40.11C40.2513 34.51 40.3913 34.482 40.5218 34.4276C40.6523 34.3732 40.7707 34.2935 40.8701 34.1931C40.9696 34.0926 41.0482 33.9735 41.1014 33.8425C41.1546 33.7116 41.1813 33.5713 41.18 33.43Z" fill="#A445BB"/>
    </symbol>

<symbol  viewBox="0 0 50 50" fill="none" id='04'>
<path d="M32.4 24.14L36.16 20.37L26.08 10.29C25.9387 10.1473 25.7705 10.034 25.5851 9.95672C25.3997 9.87941 25.2008 9.8396 25 9.8396C24.7991 9.8396 24.6003 9.87941 24.4149 9.95672C24.2295 10.034 24.0613 10.1473 23.92 10.29L13.84 20.37L17.6 24.14C17.7137 24.2525 17.8039 24.3865 17.8655 24.5341C17.9271 24.6817 17.9588 24.8401 17.9588 25C17.9588 25.16 17.9271 25.3183 17.8655 25.4659C17.8039 25.6136 17.7137 25.7475 17.6 25.86L13.84 29.63L23.92 39.71C24.0613 39.8527 24.2295 39.966 24.4149 40.0433C24.6003 40.1206 24.7991 40.1604 25 40.1604C25.2008 40.1604 25.3997 40.1206 25.5851 40.0433C25.7705 39.966 25.9387 39.8527 26.08 39.71L36.16 29.63L32.4 25.86C32.2863 25.7475 32.1961 25.6136 32.1345 25.4659C32.0729 25.3183 32.0412 25.16 32.0412 25C32.0412 24.8401 32.0729 24.6817 32.1345 24.5341C32.1961 24.3865 32.2863 24.2525 32.4 24.14Z" fill="#6F00FF"/>
<path d="M47.82 24.14L41 17.29C40.8875 17.1763 40.7535 17.086 40.6059 17.0245C40.4583 16.9629 40.3 16.9312 40.14 16.9312C39.9801 16.9312 39.8217 16.9629 39.6741 17.0245C39.5265 17.086 39.3925 17.1763 39.28 17.29L36.19 20.37L39.74 23.92C39.8827 24.0613 39.996 24.2295 40.0733 24.4149C40.1506 24.6003 40.1904 24.7991 40.1904 25C40.1904 25.2008 40.1506 25.3997 40.0733 25.5851C39.996 25.7704 39.8827 25.9386 39.74 26.08L36.19 29.63L39.28 32.71C39.3925 32.8237 39.5265 32.9139 39.6741 32.9755C39.8217 33.0371 39.9801 33.0688 40.14 33.0688C40.3 33.0688 40.4583 33.0371 40.6059 32.9755C40.7535 32.9139 40.8875 32.8237 41 32.71L47.85 25.86C48.0708 25.6262 48.1913 25.3153 48.1857 24.9939C48.1801 24.6724 48.0488 24.3659 47.82 24.14Z" fill="#D15187"/>
<path d="M39.71 23.9201L36.16 20.3701L32.4 24.1401C32.2863 24.2526 32.1961 24.3866 32.1345 24.5342C32.0729 24.6818 32.0412 24.8402 32.0412 25.0001C32.0412 25.1601 32.0729 25.3184 32.1345 25.466C32.1961 25.6137 32.2863 25.7476 32.4 25.8601L36.16 29.6301L39.71 26.0801C39.8527 25.9388 39.966 25.7706 40.0433 25.5852C40.1206 25.3998 40.1604 25.201 40.1604 25.0001C40.1604 24.7993 40.1206 24.6004 40.0433 24.415C39.966 24.2297 39.8527 24.0614 39.71 23.9201Z" fill="#A445BB"/>
<path d="M10.29 23.92L13.84 20.37L10.75 17.29C10.6375 17.1763 10.5035 17.086 10.3559 17.0245C10.2083 16.9629 10.05 16.9312 9.89 16.9312C9.73005 16.9312 9.57169 16.9629 9.42407 17.0245C9.27646 17.086 9.14252 17.1763 9.03 17.29L2.18 24.14C1.95523 24.3698 1.82938 24.6785 1.82938 25C1.82938 25.3214 1.95523 25.6301 2.18 25.86L9 32.71C9.11252 32.8237 9.24646 32.9139 9.39407 32.9755C9.54169 33.0371 9.70005 33.0688 9.86 33.0688C10.0199 33.0688 10.1783 33.0371 10.3259 32.9755C10.4735 32.9139 10.6075 32.8237 10.72 32.71L13.81 29.63L10.26 26.08C10.1192 25.9367 10.0083 25.7669 9.93353 25.5804C9.85878 25.394 9.82173 25.1946 9.82452 24.9937C9.82731 24.7929 9.86988 24.5946 9.94978 24.4103C10.0297 24.226 10.1453 24.0593 10.29 23.92Z" fill="#D15187"/>
<path d="M17.6 24.1401L13.84 20.3701L10.29 23.9201C10.1473 24.0614 10.034 24.2297 9.95669 24.415C9.87937 24.6004 9.83957 24.7993 9.83957 25.0001C9.83957 25.201 9.87937 25.3998 9.95669 25.5852C10.034 25.7706 10.1473 25.9388 10.29 26.0801L13.84 29.6301L17.6 25.8601C17.7137 25.7476 17.8039 25.6137 17.8655 25.466C17.9271 25.3184 17.9588 25.1601 17.9588 25.0001C17.9588 24.8402 17.9271 24.6818 17.8655 24.5342C17.8039 24.3866 17.7137 24.2526 17.6 24.1401Z" fill="#A445BB"/>
</symbol>

<symbol  viewBox="0 0 50 50" fill="none" id='05'>
<path d="M30.46 13.6699H11.71C11.4869 13.666 11.2652 13.7065 11.0579 13.7891C10.8506 13.8718 10.6618 13.9949 10.5026 14.1513C10.3434 14.3077 10.217 14.4942 10.1307 14.7C10.0444 14.9058 9.99996 15.1268 10 15.3499V39.0799C9.99999 39.5238 10.1756 39.9496 10.4885 40.2644C10.8014 40.5791 11.2262 40.7573 11.67 40.7599H35.44C35.8856 40.7599 36.3129 40.5829 36.6279 40.2679C36.943 39.9528 37.12 39.5255 37.12 39.0799V20.3299C35.3537 20.3299 33.6597 19.6283 32.4107 18.3793C31.1617 17.1303 30.46 15.4363 30.46 13.6699Z" fill="#6F2CFF"/>
<path d="M37.12 7.00001C35.3537 7.00001 33.6597 7.70168 32.4107 8.95068C31.1617 10.1997 30.46 11.8937 30.46 13.66H35.46C35.9056 13.66 36.3329 13.837 36.648 14.1521C36.963 14.4671 37.14 14.8944 37.14 15.34V20.34C38.909 20.3374 40.6045 19.6321 41.8535 18.3793C43.1025 17.1266 43.8027 15.429 43.8 13.66C43.7974 11.891 43.0921 10.1955 41.8394 8.94653C40.5866 7.69754 38.889 6.99736 37.12 7.00001Z" fill="#D15187"/>
<path d="M35.44 13.6699H30.44C30.44 15.4363 31.1417 17.1303 32.3907 18.3793C33.6397 19.6282 35.3337 20.3299 37.1 20.3299V15.3299C37.0948 14.8913 36.9183 14.4721 36.6081 14.1619C36.2979 13.8517 35.8786 13.6751 35.44 13.6699Z" fill="#A445BB"/>
</symbol>

<symbol  viewBox="0 0 50 50" fill="none" id='06'>
<path d="M25 16.0001C28.2972 16.0001 30.97 13.3272 30.97 10.0301C30.97 6.73292 28.2972 4.06006 25 4.06006C21.7029 4.06006 19.03 6.73292 19.03 10.0301C19.03 13.3272 21.7029 16.0001 25 16.0001Z" fill="#A445BB"/>
<path d="M12.0399 23.49C15.3371 23.49 18.0099 20.8172 18.0099 17.52C18.0099 14.2229 15.3371 11.55 12.0399 11.55C8.74281 11.55 6.06995 14.2229 6.06995 17.52C6.06995 20.8172 8.74281 23.49 12.0399 23.49Z" fill="#6F2CFF"/>
<path d="M12.0399 38.45C15.3371 38.45 18.0099 35.7771 18.0099 32.48C18.0099 29.1829 15.3371 26.51 12.0399 26.51C8.74281 26.51 6.06995 29.1829 6.06995 32.48C6.06995 35.7771 8.74281 38.45 12.0399 38.45Z" fill="#A445BB"/>
<path d="M25 45.94C28.2972 45.94 30.97 43.2671 30.97 39.97C30.97 36.6729 28.2972 34 25 34C21.7029 34 19.03 36.6729 19.03 39.97C19.03 43.2671 21.7029 45.94 25 45.94Z" fill="#6F2CFF"/>
<path d="M37.96 38.45C41.2571 38.45 43.93 35.7771 43.93 32.48C43.93 29.1829 41.2571 26.51 37.96 26.51C34.6628 26.51 31.99 29.1829 31.99 32.48C31.99 35.7771 34.6628 38.45 37.96 38.45Z" fill="#A445BB"/>
<path d="M37.96 23.49C41.2571 23.49 43.93 20.8172 43.93 17.52C43.93 14.2229 41.2571 11.55 37.96 11.55C34.6628 11.55 31.99 14.2229 31.99 17.52C31.99 20.8172 34.6628 23.49 37.96 23.49Z" fill="#6F2CFF"/>
<path d="M25 28.9101C27.1594 28.9101 28.91 27.1595 28.91 25.0001C28.91 22.8407 27.1594 21.0901 25 21.0901C22.8405 21.0901 21.09 22.8407 21.09 25.0001C21.09 27.1595 22.8405 28.9101 25 28.9101Z" fill="#D15187"/>
</symbol>

<symbol  viewBox="0 0 50 50" fill="none" id='07'>
<path d="M14.06 22.67C14.0586 24.2188 14.4399 25.744 15.17 27.11C18.1529 26.9737 20.9686 25.6933 23.0321 23.5349C25.0955 21.3765 26.248 18.506 26.25 15.52C26.2466 14.8494 26.1863 14.1804 26.07 13.52C24.6623 13.1276 23.1828 13.0667 21.7476 13.342C20.3124 13.6174 18.9605 14.2215 17.7979 15.107C16.6354 15.9924 15.6938 17.1352 15.047 18.4457C14.4002 19.7561 14.0658 21.1986 14.07 22.66L14.06 22.67Z" fill="#A445BB"/>
<path d="M23.55 8.99992H24.22C23.1963 7.50682 21.8373 6.27404 20.2518 5.40022C18.6663 4.5264 16.8983 4.03581 15.0892 3.96769C13.2802 3.89957 11.4803 4.25581 9.83354 5.00792C8.18681 5.76002 6.73898 6.88711 5.60588 8.29901C4.47278 9.7109 3.68586 11.3684 3.3081 13.1389C2.93033 14.9094 2.9722 16.7437 3.43035 18.4951C3.88851 20.2466 4.75023 21.8664 5.94657 23.2252C7.14291 24.5839 8.64066 25.6437 10.32 26.3199C9.99846 25.14 9.83371 23.9229 9.82999 22.6999C9.84056 19.0662 11.2901 15.5847 13.8614 13.0172C16.4327 10.4496 19.9163 9.0052 23.55 8.99992Z" fill="#D15187"/>
<path d="M24.22 9H23.55C19.9215 9.00523 16.4423 10.4456 13.8719 13.0066C11.3015 15.5677 9.84847 19.0415 9.82999 22.67C9.83371 23.8929 9.99846 25.1101 10.32 26.29C10.9043 28.4324 12.001 30.4005 13.5155 32.0245C15.0299 33.6486 16.9168 34.8798 19.0132 35.6121C21.1096 36.3444 23.3527 36.5557 25.549 36.2278C27.7453 35.8999 29.8289 35.0427 31.62 33.73L43.62 45.73C43.8524 45.9614 44.167 46.0914 44.495 46.0914C44.823 46.0914 45.1376 45.9614 45.37 45.73L46.61 44.49C46.8414 44.2576 46.9714 43.943 46.9714 43.615C46.9714 43.287 46.8414 42.9724 46.61 42.74L34.61 30.74C36.0653 28.7445 36.9536 26.3924 37.1808 23.9331C37.408 21.4737 36.9657 18.9987 35.9007 16.7703C34.8357 14.5419 33.1877 12.6432 31.1313 11.2752C29.075 9.90725 26.6868 9.12108 24.22 9ZM23.55 32.19C21.8313 32.1935 20.144 31.7302 18.6681 30.8496C17.1922 29.969 15.9831 28.7041 15.17 27.19C14.4398 25.8241 14.0585 24.2988 14.06 22.75C14.0558 21.2886 14.3902 19.8461 15.0369 18.5357C15.6837 17.2252 16.6254 16.0825 17.7879 15.197C18.9505 14.3115 20.3024 13.7074 21.7376 13.432C23.1728 13.1567 24.6523 13.2176 26.06 13.61C28.2811 14.2118 30.2074 15.6009 31.4798 17.5183C32.7522 19.4357 33.2837 21.7504 32.9753 24.0308C32.6668 26.3112 31.5394 28.4016 29.8034 29.912C28.0673 31.4225 25.8411 32.2499 23.54 32.24L23.55 32.19Z" fill="#6F00FF"/>
</symbol>

<symbol  viewBox="0 0 50 50" fill="none" id='08'>
<path d="M37.12 10.8899H12.88C11.781 10.8899 10.89 11.7808 10.89 12.8799V37.1199C10.89 38.2189 11.781 39.1099 12.88 39.1099H37.12C38.2191 39.1099 39.11 38.2189 39.11 37.1199V12.8799C39.11 11.7808 38.2191 10.8899 37.12 10.8899Z" fill="#6F2CFF"/>
<path d="M39.11 25H43.12" stroke="#6F2CFF" stroke-width="2.78" stroke-miterlimit="10" stroke-linecap="round"/>
<path d="M39.11 31.5601H43.12" stroke="#6F2CFF" stroke-width="2.78" stroke-miterlimit="10" stroke-linecap="round"/>
<path d="M39.11 18.4399H43.12" stroke="#6F2CFF" stroke-width="2.78" stroke-miterlimit="10" stroke-linecap="round"/>
<path d="M6.88 25H10.89" stroke="#6F2CFF" stroke-width="2.78" stroke-miterlimit="10" stroke-linecap="round"/>
<path d="M6.88 31.5601H10.89" stroke="#6F2CFF" stroke-width="2.78" stroke-miterlimit="10" stroke-linecap="round"/>
<path d="M6.88 18.4399H10.89" stroke="#6F2CFF" stroke-width="2.78" stroke-miterlimit="10" stroke-linecap="round"/>
<path d="M25 10.8899V6.87988" stroke="#6F2CFF" stroke-width="2.78" stroke-miterlimit="10" stroke-linecap="round"/>
<path d="M31.16 10.8899V6.87988" stroke="#6F2CFF" stroke-width="2.78" stroke-miterlimit="10" stroke-linecap="round"/>
<path d="M18.84 10.8899V6.87988" stroke="#6F2CFF" stroke-width="2.78" stroke-miterlimit="10" stroke-linecap="round"/>
<path d="M25 43.1201V39.1101" stroke="#6F2CFF" stroke-width="2.78" stroke-miterlimit="10" stroke-linecap="round"/>
<path d="M31.16 43.1201V39.1101" stroke="#6F2CFF" stroke-width="2.78" stroke-miterlimit="10" stroke-linecap="round"/>
<path d="M18.84 43.1201V39.1101" stroke="#6F2CFF" stroke-width="2.78" stroke-miterlimit="10" stroke-linecap="round"/>
<path d="M26.88 23.1101H23.11V26.8801H26.88V23.1101Z" fill="#D15187"/>
<path d="M33.04 23.1101H29.27V26.8801H33.04V23.1101Z" fill="#D15187"/>
<path d="M20.72 23.1101H16.95V26.8801H20.72V23.1101Z" fill="#D15187"/>
<path d="M26.88 16.5601H23.11V20.3301H26.88V16.5601Z" fill="#D15187"/>
<path d="M33.04 16.5601H29.27V20.3301H33.04V16.5601Z" fill="#D15187"/>
<path d="M20.72 16.5601H16.95V20.3301H20.72V16.5601Z" fill="#D15187"/>
<path d="M26.88 29.6699H23.11V33.4399H26.88V29.6699Z" fill="#D15187"/>
<path d="M33.04 29.6699H29.27V33.4399H33.04V29.6699Z" fill="#D15187"/>
<path d="M20.72 29.6699H16.95V33.4399H20.72V29.6699Z" fill="#D15187"/>
</symbol>

<symbol  viewBox="0 0 50 50" fill="none" id='09'>
<path d="M26.23 13.8299L41.37 21.8299L43 20.9999C43.4225 20.7748 43.7758 20.4391 44.0222 20.0287C44.2686 19.6183 44.3987 19.1486 44.3987 18.6699C44.3987 18.1912 44.2686 17.7215 44.0222 17.3111C43.7758 16.9007 43.4225 16.565 43 16.3399L26.23 7.50991C25.85 7.31267 25.4281 7.20972 25 7.20972C24.5719 7.20972 24.15 7.31267 23.77 7.50991L7.05 16.3499C6.62751 16.575 6.27417 16.9107 6.02779 17.3211C5.7814 17.7315 5.65125 18.2012 5.65125 18.6799C5.65125 19.1586 5.7814 19.6283 6.02779 20.0387C6.27417 20.4491 6.62751 20.7848 7.05 21.0099L8.63 21.8399L23.77 13.8399C24.1492 13.6411 24.5706 13.5365 24.9988 13.5347C25.4269 13.533 25.8492 13.6342 26.23 13.8299Z" fill="#6F2CFF"/>
<path d="M23.77 36.1699L8.63 28.1699L7.05 28.9999C6.62751 29.225 6.27417 29.5607 6.02779 29.9711C5.7814 30.3815 5.65125 30.8512 5.65125 31.3299C5.65125 31.8086 5.7814 32.2783 6.02779 32.6887C6.27417 33.0991 6.62751 33.4349 7.05 33.6599L23.77 42.4999C24.15 42.6972 24.5719 42.8001 25 42.8001C25.4281 42.8001 25.85 42.6972 26.23 42.4999L43 33.6499C43.42 33.424 43.771 33.0886 44.0156 32.6792C44.2602 32.2698 44.3894 31.8018 44.3894 31.3249C44.3894 30.848 44.2602 30.38 44.0156 29.9707C43.771 29.5613 43.42 29.2258 43 28.9999L41.42 28.1699L26.28 36.1699C25.8937 36.3757 25.4627 36.4833 25.025 36.4833C24.5873 36.4833 24.1563 36.3757 23.77 36.1699Z" fill="#6F2CFF"/>
<path d="M43 22.6701L41.42 21.8401L35.42 25.0001L26.26 29.8401C25.8815 30.0423 25.4591 30.1481 25.03 30.1481C24.6009 30.1481 24.1784 30.0423 23.8 29.8401L14.61 25.0001L8.60998 21.8401L7.02998 22.6701C6.60749 22.8952 6.25415 23.2309 6.00777 23.6413C5.76138 24.0517 5.63123 24.5214 5.63123 25.0001C5.63123 25.4788 5.76138 25.9485 6.00777 26.3589C6.25415 26.7693 6.60749 27.105 7.02998 27.3301L8.60998 28.1601L23.75 36.1601C24.13 36.3573 24.5518 36.4603 24.98 36.4603C25.4081 36.4603 25.83 36.3573 26.21 36.1601L41.35 28.1601L43 27.3301C43.4225 27.105 43.7758 26.7693 44.0222 26.3589C44.2686 25.9485 44.3987 25.4788 44.3987 25.0001C44.3987 24.5214 44.2686 24.0517 44.0222 23.6413C43.7758 23.2309 43.4225 22.8952 43 22.6701Z" fill="#D15187"/>
<path d="M26.23 13.83C25.85 13.6327 25.4281 13.5298 25 13.5298C24.5719 13.5298 24.15 13.6327 23.77 13.83L8.63 21.83L14.63 24.99L23.79 29.83C24.1685 30.0322 24.5909 30.138 25.02 30.138C25.4491 30.138 25.8716 30.0322 26.25 29.83L35.39 25L41.39 21.84L26.23 13.83Z" fill="#A445BB"/>
</symbol>


<symbol  viewBox="0 0 50 50" fill="none" id='10'>
<path d="M25 42.78C25.05 40.26 25.59 31.71 30.66 24.78C30.91 24.43 31.17 24.1 31.43 23.78C30.93 14.1 25 6.47998 25 6.47998C25 6.47998 19.07 14.1 18.57 23.74C18.83 24.06 19.09 24.39 19.34 24.74C24.41 31.71 25 40.26 25 42.78Z" fill="#6F2CFF"/>
<path d="M18.57 23.7398C12.51 16.2298 3.23001 13.5498 3.23001 13.5498C3.23001 13.5498 2.87001 24.0598 8.88001 32.3398C14.89 40.6198 25 43.5198 25 43.5198C25 43.5198 18.54 35.2298 18.54 24.9998C18.54 24.5798 18.55 24.1598 18.57 23.7398Z" fill="#D15187"/>
<path d="M25 42.7798C24.95 40.2598 24.41 31.7098 19.34 24.7798C19.09 24.4298 18.83 24.0998 18.57 23.7798C18.57 24.1998 18.57 24.6198 18.57 25.0398C18.54 35.2298 25 43.5198 25 43.5198C25 43.5198 25 43.2598 25 42.7798Z" fill="#A445BB"/>
<path d="M46.77 13.5498C46.77 13.5498 37.49 16.2298 31.43 23.7398C31.43 24.1598 31.43 24.5798 31.43 24.9998C31.46 35.2298 25 43.5198 25 43.5198C25 43.5198 35.1 40.6098 41.12 32.3398C47.14 24.0698 46.77 13.5498 46.77 13.5498Z" fill="#D15187"/>
<path d="M31.43 23.7402C31.17 24.0602 30.91 24.3902 30.66 24.7402C25.59 31.7402 25.05 40.2602 25 42.7402C25 43.2202 25 43.4802 25 43.4802C25 43.4802 31.46 35.2302 31.46 25.0002C31.46 24.5802 31.45 24.1602 31.43 23.7402Z" fill="#A445BB"/>
</symbol>

<symbol  viewBox="0 0 50 50" fill="none" id='11'>
<path d="M25 46.4201C36.83 46.4201 46.42 36.83 46.42 25.0001C46.42 13.1701 36.83 3.58008 25 3.58008C13.1701 3.58008 3.58002 13.1701 3.58002 25.0001C3.58002 36.83 13.1701 46.4201 25 46.4201Z" fill="#6F2CFF"/>
<path d="M20.54 23.5902C22.2245 23.5902 23.59 22.2247 23.59 20.5402C23.59 18.8558 22.2245 17.4902 20.54 17.4902C18.8555 17.4902 17.49 18.8558 17.49 20.5402C17.49 22.2247 18.8555 23.5902 20.54 23.5902Z" fill="#D15187"/>
<path d="M29.46 23.5902C31.1444 23.5902 32.51 22.2247 32.51 20.5402C32.51 18.8558 31.1444 17.4902 29.46 17.4902C27.7755 17.4902 26.41 18.8558 26.41 20.5402C26.41 22.2247 27.7755 23.5902 29.46 23.5902Z" fill="#D15187"/>
<path d="M20.54 32.5102C22.2245 32.5102 23.59 31.1446 23.59 29.4602C23.59 27.7757 22.2245 26.4102 20.54 26.4102C18.8555 26.4102 17.49 27.7757 17.49 29.4602C17.49 31.1446 18.8555 32.5102 20.54 32.5102Z" fill="#D15187"/>
<path d="M29.46 32.5102C31.1444 32.5102 32.51 31.1446 32.51 29.4602C32.51 27.7757 31.1444 26.4102 29.46 26.4102C27.7755 26.4102 26.41 27.7757 26.41 29.4602C26.41 31.1446 27.7755 32.5102 29.46 32.5102Z" fill="#D15187"/>
</symbol>


<symbol  viewBox="0 0 50 50" fill="none" id='12'>
<path d="M25 3.58008C23.787 3.58089 22.5869 3.82909 21.4731 4.30951C20.3593 4.78993 19.3552 5.49247 18.5222 6.37418C17.6891 7.25589 17.0447 8.29824 16.6282 9.4375C16.2117 10.5768 16.032 11.789 16.1 13.0001L16.6 21.4201H33.4L33.9 13.0001C33.968 11.789 33.7883 10.5768 33.3718 9.4375C32.9553 8.29824 32.3109 7.25589 31.4778 6.37418C30.6448 5.49247 29.6407 4.78993 28.5269 4.30951C27.4131 3.82909 26.213 3.58089 25 3.58008V3.58008Z" stroke="#6F2CFF" stroke-width="2.14" stroke-miterlimit="10"/>
<path d="M41.64 46.4202H8.36C8.13423 46.4203 7.91076 46.3749 7.70292 46.2868C7.49508 46.1986 7.30714 46.0695 7.15033 45.9071C6.99352 45.7447 6.87105 45.5523 6.79024 45.3415C6.70943 45.1307 6.67193 44.9058 6.68 44.6802L7.6 21.7602C7.62057 21.3286 7.80661 20.9216 8.11947 20.6236C8.43233 20.3256 8.84795 20.1597 9.28 20.1602H40.72C41.152 20.1597 41.5677 20.3256 41.8805 20.6236C42.1934 20.9216 42.3794 21.3286 42.4 21.7602L43.32 44.6802C43.3281 44.9058 43.2906 45.1307 43.2098 45.3415C43.1289 45.5523 43.0065 45.7447 42.8497 45.9071C42.6928 46.0695 42.5049 46.1986 42.2971 46.2868C42.0892 46.3749 41.8658 46.4203 41.64 46.4202V46.4202Z" fill="#6F2CFF"/>
<path d="M42.4 21.7602L42.5 24.3602H39.18V28.5602H10.82V24.3602H7.5L7.6 21.7602C7.62057 21.3286 7.80661 20.9216 8.11947 20.6236C8.43233 20.3256 8.84796 20.1597 9.28 20.1602H40.72C41.152 20.1597 41.5677 20.3256 41.8805 20.6236C42.1934 20.9216 42.3794 21.3286 42.4 21.7602V21.7602Z" fill="#D15187"/>
<path d="M39.19 28.5601H10.82V33.8101H39.19V28.5601Z" fill="#A445BB"/>
<path d="M27.63 33.8099C27.632 34.3305 27.4794 34.84 27.1916 35.2738C26.9039 35.7076 26.4938 36.0463 26.0134 36.2469C25.533 36.4475 25.0039 36.501 24.4931 36.4006C23.9823 36.3003 23.5127 36.0506 23.1439 35.6832C22.7751 35.3158 22.5236 34.8472 22.4213 34.3367C22.319 33.8263 22.3705 33.297 22.5693 32.8158C22.768 32.3347 23.1051 31.9233 23.5378 31.6339C23.9705 31.3444 24.4794 31.1899 25 31.1899C25.6958 31.1899 26.3632 31.4657 26.8562 31.9567C27.3491 32.4478 27.6274 33.1142 27.63 33.8099V33.8099Z" fill="#D15187"/>
</symbol>


<symbol viewBox="0 0 50 50" fill="none" id='13'>
<path d="M40.91 30.23C41.6844 30.23 42.4271 29.9223 42.9748 29.3747C43.5224 28.8271 43.83 28.0844 43.83 27.31C43.8282 27.0284 43.7844 26.7486 43.7 26.48L38.13 28.15C38.3069 28.7502 38.6733 29.2771 39.1743 29.652C39.6754 30.0269 40.2842 30.2296 40.91 30.23Z" fill="#D15187"/>
<path d="M40.91 24.3901C40.1373 24.3928 39.3972 24.7016 38.8517 25.2489C38.3063 25.7962 38 26.5374 38 27.3101C38.0065 27.5954 38.0536 27.8782 38.14 28.1501L43.71 26.4801C43.531 25.8764 43.1617 25.3468 42.6571 24.9701C42.1525 24.5935 41.5397 24.39 40.91 24.3901Z" fill="#A445BB"/>
<path d="M6.16998 27.31C6.16927 28.0096 6.42065 28.6861 6.87807 29.2155C7.33549 29.7449 7.96833 30.0918 8.66067 30.1926C9.353 30.2934 10.0585 30.1414 10.6479 29.7644C11.2373 29.3875 11.6711 28.8108 11.87 28.14L6.29998 26.48C6.2156 26.7486 6.17178 27.0284 6.16998 27.31Z" fill="#D15187"/>
<path d="M9.08999 24.3901C8.46203 24.3922 7.85147 24.5966 7.34889 24.9731C6.8463 25.3496 6.47848 25.8781 6.29999 26.4801L11.87 28.1401C11.9578 27.872 12.005 27.5922 12.01 27.3101C12.01 26.9267 11.9345 26.547 11.7877 26.1927C11.641 25.8384 11.4259 25.5165 11.1547 25.2454C10.8836 24.9742 10.5617 24.7592 10.2074 24.6124C9.85315 24.4657 9.47345 24.3901 9.08999 24.3901Z" fill="#A445BB"/>
<path d="M25 35.2698C29.8822 35.2698 33.84 31.312 33.84 26.4298C33.84 21.5476 29.8822 17.5898 25 17.5898C20.1178 17.5898 16.16 21.5476 16.16 26.4298C16.16 31.312 20.1178 35.2698 25 35.2698Z" fill="#A445BB"/>
<path d="M48.88 22.8898H33.1C32.472 21.4509 31.4722 20.2052 30.2033 19.2807C28.9344 18.3563 27.4421 17.7864 25.88 17.6298V11.6298C25.8813 11.516 25.8601 11.4031 25.8174 11.2976C25.7748 11.1921 25.7117 11.0961 25.6317 11.0152C25.5517 10.9343 25.4564 10.87 25.3514 10.8262C25.2464 10.7823 25.1338 10.7598 25.02 10.7598C24.9062 10.7598 24.7936 10.7823 24.6886 10.8262C24.5836 10.87 24.4883 10.9343 24.4083 11.0152C24.3283 11.0961 24.2652 11.1921 24.2226 11.2976C24.1799 11.4031 24.1587 11.516 24.16 11.6298V17.6298C22.5979 17.7864 21.1056 18.3563 19.8367 19.2807C18.5678 20.2052 17.568 21.4509 16.94 22.8898H1.12C0.889262 22.8898 0.667974 22.9814 0.504817 23.1446C0.34166 23.3077 0.25 23.529 0.25 23.7598V23.9998C0.250152 24.1876 0.310416 24.3705 0.421975 24.5216C0.533533 24.6728 0.690531 24.7843 0.87 24.8398L6.3 26.4798C6.49202 25.8005 6.92438 25.2142 7.51655 24.8301C8.10872 24.4459 8.82033 24.2901 9.51885 24.3917C10.2174 24.4932 10.8552 24.8452 11.3135 25.382C11.7718 25.9188 12.0193 26.604 12.01 27.3098C12.005 27.5919 11.9578 27.8716 11.87 28.1398L16.76 29.6098V29.3998C18.04 32.2098 21.24 33.4998 24.99 33.4998C28.74 33.4998 31.99 32.1998 33.23 29.3798V29.6098L38.11 28.1498C38.0236 27.8778 37.9765 27.595 37.97 27.3098C37.9607 26.604 38.2082 25.9188 38.6665 25.382C39.1248 24.8452 39.7626 24.4932 40.4612 24.3917C41.1597 24.2901 41.8713 24.4459 42.4635 24.8301C43.0556 25.2142 43.488 25.8005 43.68 26.4798L49.11 24.8498C49.2895 24.7943 49.4465 24.6828 49.558 24.5316C49.6696 24.3805 49.7298 24.1976 49.73 24.0098V23.7598C49.7301 23.5325 49.6412 23.3141 49.4823 23.1515C49.3234 22.989 49.1073 22.895 48.88 22.8898Z" fill="#6F2CFF"/>
<path d="M30.3 22.0098V22.8898L25 24.6598L19.7 22.8898V22.0098H30.3Z" fill="white"/>
</symbol>


<symbol viewBox="0 0 50 50" fill="none" id='14'>
<path d="M40.28 25.7002C38.47 30.8902 33.39 36.6302 29.28 40.7002C30.6108 42.2259 32.0405 43.6623 33.56 45.0002C33.8735 45.2806 34.2794 45.4356 34.7 45.4356C35.1206 45.4356 35.5265 45.2806 35.84 45.0002C38.33 42.7902 44.06 37.2802 44.06 33.2302C44.0632 31.7668 43.7228 30.3231 43.0662 29.0153C42.4097 27.7074 41.4554 26.572 40.28 25.7002Z" fill="#D15187"/>
<path d="M40.28 25.6998C38.8895 24.6627 37.2378 24.0328 35.5098 23.8807C33.7817 23.7286 32.0455 24.0603 30.4951 24.8386C28.9448 25.6168 27.6416 26.8111 26.7311 28.2877C25.8207 29.7643 25.3391 31.4651 25.34 33.1998C25.34 35.5098 27.21 38.2998 29.28 40.6798C33.39 36.6298 38.47 30.8898 40.28 25.6998Z" fill="#A445BB"/>
<path d="M23.46 4.5801C21.1589 4.57879 18.8801 5.03106 16.7538 5.91106C14.6276 6.79105 12.6957 8.08152 11.0686 9.70866C9.44142 11.3358 8.15096 13.2677 7.27096 15.3939C6.39096 17.5202 5.93869 19.799 5.94001 22.1001C5.94001 30.2801 18.47 41.6801 22.33 45.0001C22.6425 45.2703 23.0419 45.419 23.455 45.419C23.8681 45.419 24.2675 45.2703 24.58 45.0001C25.64 44.0901 27.35 42.5701 29.28 40.6801C27.21 38.3001 25.34 35.5101 25.34 33.2001C25.3534 30.9092 26.2075 28.703 27.74 27.0001C26.5871 28.1017 25.0546 28.7175 23.46 28.7201C22.0019 28.7402 20.5812 28.2586 19.4359 27.3561C18.2905 26.4535 17.4901 25.1848 17.1687 23.7624C16.8473 22.34 17.0245 20.8504 17.6705 19.5431C18.3166 18.2358 19.3922 17.1901 20.7173 16.5814C22.0424 15.9726 23.5364 15.8377 24.9492 16.1993C26.3619 16.5608 27.6074 17.3968 28.4772 18.5673C29.347 19.7377 29.7881 21.1715 29.7267 22.6284C29.6653 24.0854 29.1051 25.477 28.14 26.5701C29.7284 25.0002 31.8277 24.0528 34.0559 23.9005C36.284 23.7481 38.4927 24.401 40.28 25.7401C40.7263 24.5768 40.9698 23.3457 41 22.1001C41.0013 19.7973 40.5484 17.5168 39.6671 15.3893C38.7859 13.2618 37.4936 11.329 35.8644 9.70158C34.2351 8.07417 32.3008 6.78413 30.1723 5.90531C28.0438 5.02649 25.7628 4.57616 23.46 4.5801Z" fill="#6F2CFF"/>
</symbol>

<symbol viewBox="0 0 50 50" fill="none" id='15'>
<path d="M46.57 9.04991L26.05 2.67991C25.7834 2.59643 25.503 2.56644 25.2248 2.59168C24.9466 2.61692 24.6761 2.69688 24.429 2.82698C24.1818 2.95708 23.9627 3.13474 23.7844 3.34976C23.6061 3.56478 23.4721 3.81292 23.39 4.07991L18.54 19.6599L24.97 18.6599C25.5283 18.5737 26.0979 18.7129 26.5536 19.0467C27.0093 19.3805 27.3138 19.8816 27.4 20.4399L29 30.5399L39 33.6399C39.2672 33.7235 39.5483 33.7537 39.8272 33.7285C40.1061 33.7034 40.3773 33.6236 40.6253 33.4935C40.8733 33.3635 41.0932 33.1859 41.2724 32.9707C41.4517 32.7556 41.5868 32.5073 41.67 32.2399L48 11.7199C48.0844 11.4508 48.1143 11.1675 48.0878 10.8867C48.0614 10.6058 47.9792 10.3331 47.846 10.0844C47.7128 9.83578 47.5314 9.6162 47.3123 9.43856C47.0932 9.26092 46.8408 9.12879 46.57 9.04991Z" fill="#D15187"/>
<path d="M17 24.6002L18.53 19.6602L3.73003 22.0002C3.19203 22.1004 2.71289 22.403 2.39111 22.8457C2.06934 23.2883 1.92939 23.8375 2.00003 24.3802L5.23003 45.6202C5.3186 46.1766 5.62404 46.6753 6.07947 47.007C6.53491 47.3388 7.10324 47.4765 7.66003 47.3902L28.9 44.1202C29.4583 44.0339 29.9595 43.7295 30.2933 43.2738C30.6271 42.8181 30.7662 42.2484 30.68 41.6902L29 30.5402L18.41 27.2602C18.1421 27.1791 17.8929 27.0458 17.6768 26.8679C17.4607 26.6901 17.282 26.4712 17.1509 26.2239C17.0198 25.9766 16.939 25.7058 16.9131 25.4271C16.8872 25.1484 16.9167 24.8674 17 24.6002Z" fill="#6F2CFF"/>
<path d="M25 18.67L18.57 19.67L17 24.6C16.9165 24.8666 16.8865 25.147 16.9117 25.4252C16.937 25.7034 17.017 25.9739 17.147 26.2211C17.2771 26.4682 17.4548 26.6873 17.6698 26.8656C17.8849 27.0439 18.133 27.1779 18.4 27.26L29 30.54L27.4 20.45C27.3135 19.8978 27.0135 19.4016 26.5645 19.0686C26.1155 18.7356 25.5536 18.5925 25 18.67Z" fill="#A445BB"/>
<path d="M32.48 20.4899C33.6674 20.4899 34.63 19.5274 34.63 18.3399C34.63 17.1525 33.6674 16.1899 32.48 16.1899C31.2926 16.1899 30.33 17.1525 30.33 18.3399C30.33 19.5274 31.2926 20.4899 32.48 20.4899Z" fill="white"/>
<path d="M28.24 12.4401C29.4274 12.4401 30.39 11.4775 30.39 10.2901C30.39 9.10272 29.4274 8.14014 28.24 8.14014C27.0526 8.14014 26.09 9.10272 26.09 10.2901C26.09 11.4775 27.0526 12.4401 28.24 12.4401Z" fill="white"/>
<path d="M40.53 16.26C41.7174 16.26 42.68 15.2974 42.68 14.11C42.68 12.9225 41.7174 11.96 40.53 11.96C39.3426 11.96 38.38 12.9225 38.38 14.11C38.38 15.2974 39.3426 16.26 40.53 16.26Z" fill="white"/>
<path d="M24.42 24.7302C25.6074 24.7302 26.57 23.7676 26.57 22.5802C26.57 21.3928 25.6074 20.4302 24.42 20.4302C23.2326 20.4302 22.27 21.3928 22.27 22.5802C22.27 23.7676 23.2326 24.7302 24.42 24.7302Z" fill="white"/>
<path d="M36.71 28.55C37.8974 28.55 38.86 27.5874 38.86 26.4C38.86 25.2126 37.8974 24.25 36.71 24.25C35.5226 24.25 34.56 25.2126 34.56 26.4C34.56 27.5874 35.5226 28.55 36.71 28.55Z" fill="white"/>
<path d="M16.39 35.3601C17.5774 35.3601 18.54 34.3975 18.54 33.2101C18.54 32.0226 17.5774 31.0601 16.39 31.0601C15.2026 31.0601 14.24 32.0226 14.24 33.2101C14.24 34.3975 15.2026 35.3601 16.39 35.3601Z" fill="white"/>
<path d="M9.04001 29.9802C10.2274 29.9802 11.19 29.0176 11.19 27.8302C11.19 26.6428 10.2274 25.6802 9.04001 25.6802C7.8526 25.6802 6.89001 26.6428 6.89001 27.8302C6.89001 29.0176 7.8526 29.9802 9.04001 29.9802Z" fill="white"/>
<path d="M23.73 40.7302C24.9174 40.7302 25.88 39.7676 25.88 38.5802C25.88 37.3928 24.9174 36.4302 23.73 36.4302C22.5426 36.4302 21.58 37.3928 21.58 38.5802C21.58 39.7676 22.5426 40.7302 23.73 40.7302Z" fill="white"/>
</symbol>


</svg>